<svg id="Слой_1" data-name="Слой 1" xmlns="http://www.w3.org/2000/svg" viewBox="0 0 82.21 82.19"><defs><style>.cls-1{fill:#faa61a;}.cls-2{fill:#42210b;}.cls-3{fill:#ffcb05;}.cls-4,.cls-5{fill:none;stroke-linejoin:round;stroke-width:4.6px;}.cls-4{stroke:#42210b;}.cls-5{stroke:#fff;stroke-linecap:round;}</style></defs><path class="cls-1" d="M52.05,84a2.32,2.32,0,0,1-1.15-.3,2.3,2.3,0,0,1-1.15-2.07l.47-14.73a2.32,2.32,0,0,1,.59-1.47l17-18.74a2.32,2.32,0,0,1,1.71-.76,2.21,2.21,0,0,1,.9.19,2.29,2.29,0,0,1,1.39,2.27L70.11,72A2.28,2.28,0,0,1,69,73.78L53.26,83.61A2.29,2.29,0,0,1,52.05,84Z" transform="translate(-7.42 -8.93)"/><path class="cls-2" d="M69.49,48.18,67.82,71.83,52.05,81.65l.47-14.73,17-18.74m0-4.6a4.61,4.61,0,0,0-3.41,1.51l-17,18.74a4.64,4.64,0,0,0-1.19,2.94l-.47,14.74a4.61,4.61,0,0,0,7,4l15.77-9.83a4.62,4.62,0,0,0,2.16-3.58l1.67-23.64A4.61,4.61,0,0,0,71.29,44a4.53,4.53,0,0,0-1.8-.37Z" transform="translate(-7.42 -8.93)"/><path class="cls-3" d="M17,48.92a2.3,2.3,0,0,1-2-3.52l9.82-15.77a2.35,2.35,0,0,1,1.79-1.08l23.65-1.67h.17a2.29,2.29,0,0,1,2.11,1.39A2.32,2.32,0,0,1,52,30.88l-18.74,17a2.32,2.32,0,0,1-1.47.6Z" transform="translate(-7.42 -8.93)"/><path class="cls-2" d="M50.48,29.18l-18.74,17L17,46.62l9.83-15.77,23.64-1.67m0-4.6h-.33L26.51,26.26a4.6,4.6,0,0,0-3.58,2.16L13.11,44.19a4.6,4.6,0,0,0,3.9,7h.15l14.73-.47a4.64,4.64,0,0,0,2.94-1.19l18.74-17a4.6,4.6,0,0,0-3.08-8Z" transform="translate(-7.42 -8.93)"/><path class="cls-3" d="M49.85,67.38a2.34,2.34,0,0,1-1.63-.67L31.84,50.32a2.29,2.29,0,0,1-.67-1.62,2.31,2.31,0,0,1,.67-1.63l29-29c4-4,11.3-6.82,17.73-6.82a17.77,17.77,0,0,1,6.14,1,2.41,2.41,0,0,1,.91.51,2.33,2.33,0,0,1,.67,1.1c2.86,7.78-.74,18.75-5.81,23.82l-29,29A2.34,2.34,0,0,1,49.85,67.38Z" transform="translate(-7.42 -8.93)"/><path class="cls-2" d="M78.59,13.53a15.35,15.35,0,0,1,5.48.93h0v0h0c2.63,6.8-.69,17.05-5.21,21.58l-29,29L33.46,48.7l29-29c3.42-3.42,10.1-6.15,16.1-6.15m0-4.6h0c-7,0-14.94,3.08-19.35,7.49l-29,29a4.62,4.62,0,0,0,0,6.51L46.6,68.33a4.59,4.59,0,0,0,6.5,0l29-29c5.69-5.69,9.55-17.53,6.35-26.25a4.69,4.69,0,0,0-.81-1.49A4.61,4.61,0,0,0,85.39,10a20.16,20.16,0,0,0-6.8-1.11Z" transform="translate(-7.42 -8.93)"/><path class="cls-1" d="M84.09,14.49c2.61,6.81-.7,17-5.22,21.57l-29,29L41.67,56.9Z" transform="translate(-7.42 -8.93)"/><path class="cls-4" d="M68.41,25a3.67,3.67,0,1,0,5.19,0A3.68,3.68,0,0,0,68.41,25Z" transform="translate(-7.42 -8.93)"/><line class="cls-5" x1="25.69" y1="56.62" x2="6.13" y2="76.18"/><line class="cls-5" x1="16.91" y1="47.84" x2="2.3" y2="62.45"/><line class="cls-5" x1="34.35" y1="65.28" x2="19.74" y2="79.89"/><line class="cls-5" x1="37.72" y1="36.47" x2="48.22" y2="26.47"/></svg>